<?xml version="1.0" encoding="utf-8"?>
<!-- Generator: Adobe Illustrator 19.0.0, SVG Export Plug-In . SVG Version: 6.00 Build 0)  -->
<svg version="1.1" id="Layer_1" xmlns="http://www.w3.org/2000/svg" xmlns:xlink="http://www.w3.org/1999/xlink" x="0px" y="0px"
	 viewBox="1029.5 -144 1006.3 1006.8" xml:space="preserve">
<title>Stakewiz Emblem</title>
<path d="M1509.8,347.9L1726.4,114l8.9-9.6l-9.8-100.7l-45,48.1l-3.6-36.9l-350.4,376l229,84.2l-129.6,139.3l9.9,100.7l45-48.1
	l3.6,36.8l254.4-271.8L1509.8,347.9z M1635.5,456.1l-121.6-43.4l-14,14l104.1,37.1l-129.4,139.2l4,40.3l-28.8,30.8l-5.2-53.5
	l142.3-153.2l-229-84L1663,55.9l5.2,53.5l-238.5,257.4l111.8,39.9l14-14l-94.3-33.6l225.5-243.5l-4-40.2l28.8-30.7l5.2,53.6
	l-238.3,257.3l229,84l-209.2,223.4l-1.3-13.1l0,0l-4-40.4L1635.5,456.1z"/>
</svg>
