<?xml version="1.0" encoding="utf-8"?>
<!-- Generator: Adobe Illustrator 19.0.0, SVG Export Plug-In . SVG Version: 6.00 Build 0)  -->
<svg version="1.1" id="Layer_1" xmlns="http://www.w3.org/2000/svg" xmlns:xlink="http://www.w3.org/1999/xlink" x="0px" y="0px"
	 viewBox="882 166.5 1485 466.3" xml:space="preserve">
<title>Stakewiz Logo</title>
<path d="M1307.9,455.5c-17.7,0-31.2-11.3-35-29.5l11.8-2.9c1.7,12.8,11.1,21.3,23.7,21.3c12.9,0,23.3-10.4,23.3-23.3
	c0-28.8-53.1-18.8-53.1-55.2c0-16.5,13.9-29,32.2-29c12.5,0,22.1,5.7,28.8,17l-9.4,6c-5.3-8.4-10.8-11.7-19.4-11.7
	c-11.1,0-20.2,7.9-20.2,17.6c0,24.8,53.3,16.5,53.3,54.5C1343.9,440.2,1328.3,455.5,1307.9,455.5z"/>
<path d="M1437.3,349.9v103.3h-12.2V349.9h-27.8v-11.1h67.7v11.1H1437.3z"/>
<path d="M1600.4,453.2l-13.4-31.5h-51.8l-13.7,31.5h-13l53.3-118.7l51.6,118.7H1600.4z M1561.5,361.6l-21.4,49h42.3
	L1561.5,361.6z"/>
<path d="M1734.8,453.2l-46.6-53.8l-4.8,4.8v49h-12.2V338.8h12.2v50.9l50.2-50.9h15.9l-52.8,52.6l54.5,61.9L1734.8,453.2
	z"/>
<path d="M1808.7,453.2V338.8h59.4v11.1h-47.3v34.9h45.9V396h-45.9v46.1h47.3v11.1L1808.7,453.2z"/>
<path d="M2036.8,457.5l-33.1-90.1l-35,90.1L1924,338.8h13.7l31.5,86.2l35-90.5l33.2,90.5l34.3-86.2h13.2L2036.8,457.5z"
	/>
<path d="M2142.9,453.2V338.8h12.1v114.5H2142.9z"/>
<path d="M2234.6,442.1h61.2v11.1h-80.9l61.7-103.3h-54v-11.1h73.7L2234.6,442.1z"/>
<path d="M1029.9,389.9l115.9-125.2l4.8-5.1l-5.3-53.9l-24.1,25.7l-1.9-19.7L931.8,412.8l122.6,45.1L985,532.5l5.3,53.9
	l24.1-25.7l1.9,19.7l136.2-145.5L1029.9,389.9z M1097.2,447.8l-65.1-23.2l-7.5,7.5l55.7,19.9l-69.3,74.5l2.2,21.5l-15.4,16.5
	l-2.8-28.7l76.2-82l-122.6-45l163.3-175.3l2.8,28.6L987.1,400l59.8,21.3l7.5-7.5l-50.5-18l120.7-130.3l-2.1-21.5l15.4-16.5l2.8,28.7
	l-127.6,137.7l122.6,45l-111.9,119.5l-0.7-7l0,0l-2.1-21.6L1097.2,447.8z"/>
</svg>
